<?xml version="1.0" encoding="UTF-8"?>
<svg id="Layer_1" data-name="Layer 1" xmlns="http://www.w3.org/2000/svg" viewBox="0 0 1080 1080">
  <defs>
    <style>
      .cls-1 {
        fill: #d52926;
      }

      .cls-2 {
        fill: #252525;
      }
    </style>
  </defs>
  <path class="cls-2" d="M263.98,660.73H63.25v-200.72h200.72v200.72ZM165.04,475.58c-47.19,0-85.44,38.25-85.44,85.44s38.25,85.44,85.44,85.44,85.44-38.25,85.44-85.44-38.25-85.44-85.44-85.44Z"/>
  <g>
    <path class="cls-2" d="M317.91,513.37c2.16-2.24,4.76-3.96,7.81-5.15,3.05-1.18,6.39-1.78,10.04-1.78,4.15,0,7.96.89,11.43,2.67,3.47,1.78,6.65,4.36,9.53,7.75l16.01-14.48c-4.32-5.5-9.72-9.67-16.2-12.51-6.48-2.84-13.83-4.26-22.04-4.26-7.03,0-13.51,1.12-19.44,3.37-5.93,2.25-11.1,5.42-15.5,9.53-4.4,4.11-7.84,9-10.29,14.67-2.46,5.68-3.68,11.9-3.68,18.67s1.23,13,3.68,18.68c2.45,5.67,5.89,10.56,10.29,14.67,4.4,4.11,9.57,7.29,15.5,9.53,5.93,2.24,12.41,3.37,19.44,3.37,8.21,0,15.56-1.44,22.04-4.32,6.48-2.88,11.88-7.07,16.2-12.58l-16.01-14.48c-2.88,3.47-6.06,6.1-9.53,7.88-3.47,1.78-7.29,2.67-11.43,2.67-3.64,0-6.99-.59-10.04-1.78-3.05-1.19-5.65-2.9-7.81-5.15-2.16-2.24-3.85-4.93-5.08-8.07-1.23-3.13-1.84-6.61-1.84-10.42s.61-7.28,1.84-10.42c1.23-3.13,2.92-5.82,5.08-8.07Z"/>
    <rect class="cls-2" x="383.02" y="487.39" width="25.15" height="88.93"/>
    <polygon class="cls-2" points="485.92 534.75 446.79 487.39 426.09 487.39 426.09 576.32 450.61 576.32 450.61 528.93 489.86 576.32 510.57 576.32 510.57 487.39 485.92 487.39 485.92 534.75"/>
    <polygon class="cls-2" points="553.25 540.5 592.76 540.5 592.76 521.82 553.25 521.82 553.25 506.96 598.1 506.96 598.1 487.39 528.48 487.39 528.48 576.32 599.75 576.32 599.75 556.76 553.25 556.76 553.25 540.5"/>
    <polygon class="cls-2" points="696.3 487.39 665.75 538.77 634.56 487.39 613.85 487.39 613.85 576.32 636.97 576.32 636.97 530.46 659.71 567.56 670.89 567.56 693.79 529.14 694.01 576.32 717.14 576.32 717.01 487.39 696.3 487.39"/>
    <path class="cls-2" d="M763.5,487.39l-39.26,88.93h25.66l6.99-17.41h37.61l6.99,17.41h26.17l-39.38-88.93h-24.77ZM764.29,540.5l11.41-28.43,11.41,28.43h-22.82Z"/>
    <polygon class="cls-2" points="849.26 576.32 874.41 576.32 874.41 507.34 901.6 507.34 901.6 487.39 821.94 487.39 821.94 507.34 849.26 507.34 849.26 576.32"/>
    <rect class="cls-2" x="911.13" y="487.39" width="25.15" height="88.93"/>
    <path class="cls-2" d="M1020.44,573.78c6.48-2.88,11.88-7.07,16.2-12.58l-16.01-14.48c-2.88,3.47-6.06,6.1-9.53,7.88-3.47,1.78-7.29,2.67-11.43,2.67-3.64,0-6.99-.59-10.04-1.78-3.05-1.19-5.65-2.9-7.81-5.15-2.16-2.24-3.85-4.93-5.08-8.07-1.23-3.13-1.84-6.61-1.84-10.42s.61-7.28,1.84-10.42c1.23-3.13,2.92-5.82,5.08-8.07,2.16-2.24,4.76-3.96,7.81-5.15,3.05-1.18,6.39-1.78,10.04-1.78,4.15,0,7.96.89,11.43,2.67,3.47,1.78,6.65,4.36,9.53,7.75l16.01-14.48c-4.32-5.5-9.72-9.67-16.2-12.51-6.48-2.84-13.83-4.26-22.04-4.26-7.03,0-13.51,1.12-19.44,3.37-5.93,2.25-11.1,5.42-15.5,9.53-4.4,4.11-7.84,9-10.29,14.67-2.46,5.68-3.68,11.9-3.68,18.67s1.23,13,3.68,18.68c2.45,5.67,5.89,10.56,10.29,14.67,4.4,4.11,9.57,7.29,15.5,9.53,5.93,2.24,12.41,3.37,19.44,3.37,8.21,0,15.56-1.44,22.04-4.32Z"/>
    <path class="cls-2" d="M768.68,613.1c-1.5-.95-3.14-1.71-4.92-2.28s-3.57-1.05-5.36-1.43c-1.8-.38-3.44-.75-4.92-1.11-1.48-.36-2.69-.83-3.62-1.4-.93-.57-1.4-1.36-1.4-2.38,0-.68.23-1.31.7-1.9.47-.59,1.23-1.08,2.29-1.46,1.06-.38,2.45-.57,4.19-.57,1.95,0,3.96.28,6.03.83,2.07.55,4.17,1.42,6.29,2.6l3.81-9.27c-2.16-1.31-4.65-2.3-7.46-2.95-2.82-.66-5.68-.99-8.6-.99-4.36,0-8,.66-10.92,1.97-2.92,1.31-5.1,3.05-6.54,5.21-1.44,2.16-2.16,4.55-2.16,7.18,0,2.37.45,4.34,1.36,5.9.91,1.57,2.11,2.84,3.59,3.81,1.48.98,3.13,1.76,4.95,2.35,1.82.59,3.61,1.07,5.36,1.43,1.76.36,3.39.74,4.89,1.14,1.5.4,2.72.89,3.65,1.46.93.57,1.4,1.34,1.4,2.32,0,.76-.24,1.42-.73,1.97-.49.55-1.25.98-2.29,1.27-1.04.3-2.44.44-4.22.44-2.58,0-5.17-.41-7.78-1.24-2.6-.83-4.9-1.87-6.89-3.14l-4.13,9.33c2.07,1.4,4.79,2.55,8.16,3.46,3.37.91,6.89,1.37,10.57,1.37,4.4,0,8.06-.66,10.98-1.97,2.92-1.31,5.11-3.06,6.57-5.24,1.46-2.18,2.19-4.56,2.19-7.14,0-2.33-.47-4.26-1.4-5.81-.93-1.55-2.15-2.79-3.65-3.75Z"/>
    <polygon class="cls-2" points="784.46 601.64 798.11 601.64 798.11 636.12 810.68 636.12 810.68 601.64 824.26 601.64 824.26 591.68 784.46 591.68 784.46 601.64"/>
    <path class="cls-2" d="M866.86,615.99c0,3.77-.73,6.48-2.19,8.13-1.46,1.65-3.5,2.48-6.13,2.48s-4.68-.83-6.16-2.48c-1.48-1.65-2.22-4.36-2.22-8.13v-24.32h-12.57v24.7c0,6.56,1.83,11.64,5.49,15.24,3.66,3.6,8.77,5.4,15.33,5.4s11.63-1.8,15.33-5.4c3.7-3.6,5.56-8.68,5.56-15.24v-24.7h-12.44v24.32Z"/>
    <path class="cls-2" d="M931.62,594.4c-3.72-1.82-8.02-2.73-12.89-2.73h-21.02v44.44h21.02c4.87,0,9.16-.91,12.89-2.73,3.72-1.82,6.63-4.39,8.73-7.71s3.14-7.25,3.14-11.78-1.05-8.51-3.14-11.81-5.01-5.86-8.73-7.68ZM929.21,620.4c-1.06,1.84-2.53,3.25-4.41,4.22-1.88.98-4.12,1.46-6.7,1.46h-7.81v-24.38h7.81c2.58,0,4.81.49,6.7,1.46,1.88.97,3.35,2.36,4.41,4.16,1.06,1.8,1.59,3.99,1.59,6.57s-.53,4.67-1.59,6.51Z"/>
    <rect class="cls-2" x="960" y="591.68" width="12.57" height="44.44"/>
    <path class="cls-2" d="M1036.54,604.63c-1.25-2.79-2.97-5.23-5.17-7.3-2.2-2.07-4.8-3.68-7.81-4.82-3.01-1.14-6.29-1.71-9.84-1.71s-6.84.57-9.84,1.71c-3.01,1.14-5.61,2.76-7.81,4.86-2.2,2.1-3.93,4.54-5.17,7.33-1.25,2.79-1.87,5.84-1.87,9.14s.62,6.42,1.87,9.24c1.25,2.82,2.97,5.27,5.17,7.37,2.2,2.1,4.81,3.71,7.84,4.86,3.03,1.14,6.3,1.71,9.81,1.71s6.84-.57,9.84-1.71c3-1.14,5.62-2.75,7.84-4.82s3.95-4.52,5.17-7.33c1.23-2.81,1.84-5.91,1.84-9.3s-.62-6.41-1.87-9.21ZM1024.79,619.13c-.61,1.55-1.46,2.88-2.54,4-1.08,1.12-2.35,1.98-3.81,2.57s-3.04.89-4.73.89-3.27-.3-4.73-.89-2.74-1.45-3.84-2.57c-1.1-1.12-1.95-2.45-2.54-4-.59-1.55-.89-3.29-.89-5.24s.3-3.69.89-5.24c.59-1.54,1.44-2.88,2.54-4s2.38-1.98,3.84-2.57c1.46-.59,3.04-.89,4.73-.89s3.27.3,4.73.89c1.46.59,2.73,1.45,3.81,2.57,1.08,1.12,1.93,2.46,2.54,4,.61,1.55.92,3.29.92,5.24s-.31,3.69-.92,5.24Z"/>
  </g>
  <circle class="cls-1" cx="165.04" cy="561.02" r="63.15"/>
</svg>